<?xml version="1.0" encoding="UTF-8"?>
<svg width="743.2" height="787.4709" version="1.1" viewBox="0 0 743.2 787.4709" xmlns="http://www.w3.org/2000/svg">
<style type="text/css">.st0{display:none;}
	.st1{display:inline;fill:#FFFFFF;}
	.st2{fill:#E20E18;}
	.st3{fill:#FFFFFF;}</style>
<g>
<path class="st2" d="m279.5879 357.8908s-.35087 32.45579 25.08745 37.01714c25.43832 4.56136 42.80656-18.42085 42.80656-18.42085l-67.89401-21.40328z" style="stroke-width:1.75437"/>
<path class="st3" d="m274.1494 482.4509h-20.35066v-4.56136l-65.26245-46.31529c-2.63155-1.9298-4.21048-4.91222-4.21048-8.24552v-86.13942h20.35065v80.87632l65.43789 46.49072c2.63155 1.92981 4.21048 4.91223 4.21048 8.24553v9.64902z" style="stroke-width:1.75437"/>
<path class="st3" d="m392.92 539.8187h-100.1744c-21.40328 0-38.94695-17.36824-38.94695-38.59608v-28.42074h20.35066v28.42074c0 10.17533 8.42096 18.24542 18.59629 18.24542h100.1744z" style="stroke-width:1.75437"/>
<path class="st3" d="m315.0261 539.8187c-5.61398 0-10.17533-4.56136-10.17533-10.17533v-27.01725c0-5.61398 4.56135-10.17533 10.17533-10.17533 5.61397 0 10.17533 4.56135 10.17533 10.17533v27.01725c0 5.61397-4.56136 10.17533-10.17533 10.17533z" style="stroke-width:1.75437"/>
<path class="st3" d="m194.3257 343.8559c-13.15776 0-24.03483-10.70163-24.03483-24.03482 0-13.15776 10.70164-24.03483 24.03483-24.03483 13.15775 0 24.03482 10.70164 24.03482 24.03483s-10.70163 24.03482-24.03482 24.03482zm0-34.38559c-5.78941 0-10.5262 4.73679-10.5262 10.5262s4.73679 10.5262 10.5262 10.5262 10.5262-4.73679 10.5262-10.5262c0-5.96485-4.73679-10.5262-10.5262-10.5262z" style="stroke-width:1.75437"/>
<circle class="st2" cx="220.6412" cy="243.6815" r="19.1226" style="stroke-width:1.75437"/>
<circle class="st2" cx="291.1667" cy="182.2787" r="19.1226" style="stroke-width:1.75437"/>
<circle class="st2" cx="252.9215" cy="124.2091" r="19.1226" style="stroke-width:1.75437"/>
<circle class="st2" cx="346.9556" cy="143.3317" r="19.1226" style="stroke-width:1.75437"/>
<circle class="st2" cx="348.5346" cy="83.68327" r="19.1226" style="stroke-width:1.75437"/>
<circle class="st2" cx="441.3406" cy="105.0865" r="19.1226" style="stroke-width:1.75437"/>
<rect class="st2" x="175.3785" y="175.4366" width="115.7882" height="13.50863" style="stroke-width:1.75437"/>
<path class="st2" d="m299.5877 130.8757h-46.8416v-13.50863h39.99957v-17.01736c0-2.806983 1.75436-5.438533 4.56135-6.315717l48.94684-16.66649 4.38592 12.80688-44.38549 15.08755v18.94717c.17544 3.68417-2.80699 6.66659-6.66659 6.66659z" style="stroke-width:1.75437"/>
<rect class="st2" transform="rotate(-24.2813)" x="250.6916" y="273.2502" width="13.50807" height="85.25872" style="stroke-width:1.75429"/>
<path class="st2" d="m327.3067 259.9971-69.82381-23.50852-34.38559 13.50863-4.91223-12.63144 36.66627-14.38581c1.40349-.52631 3.15786-.70175 4.56135-.17544l72.10449 24.3857z" style="stroke-width:1.75437"/>
<path class="st2" d="m448.0071 166.3139h-13.50863v-50.7012l-32.45579 14.73668c-2.10524.87718-4.56135.70175-6.49116-.52631-1.9298-1.22806-3.15786-3.3333-3.15786-5.61397v-82.98156h13.50863v72.45535l32.45579-14.73668c2.10524-.877184 4.56135-.701747 6.49115.52631 1.92981 1.228059 3.15787 3.333299 3.15787 5.613979z" style="stroke-width:1.75437"/>
<path class="st3" d="m343.9732 48.06961c-13.15775 0-24.03483-10.70164-24.03483-24.03483 0-13.15775 10.70164-24.03483 24.03483-24.03483 13.15775 0 24.03483 10.70164 24.03483 24.03483-.17544 13.15775-10.87708 24.03483-24.03483 24.03483zm0-34.56103c-5.78941 0-10.5262 4.736791-10.5262 10.5262s4.73679 10.5262 10.5262 10.5262 10.5262-4.736791 10.5262-10.5262-4.73679-10.5262-10.5262-10.5262z" style="stroke-width:1.75437"/>
<path class="st3" d="m399.2357 48.06961c-13.15775 0-24.03483-10.70164-24.03483-24.03483 0-13.15775 10.70164-24.03483 24.03483-24.03483 13.15776 0 24.03483 10.70164 24.03483 24.03483 0 13.15775-10.87707 24.03483-24.03483 24.03483zm0-34.56103c-5.78941 0-10.5262 4.736791-10.5262 10.5262s4.73679 10.5262 10.5262 10.5262 10.5262-4.736791 10.5262-10.5262-4.73679-10.5262-10.5262-10.5262z" style="stroke-width:1.75437"/>
<path class="st3" d="m176.9574 308.0668c-30.87686-86.31486-11.22795-149.8229 10.52621-187.8927 34.21015-59.47304 93.68319-94.38494 137.7178-102.6305l3.68417 19.99978c-38.06977 7.192904-92.98146 39.29782-123.8583 92.80601-28.24531 49.29771-31.40317 108.4199-9.12271 171.0508z" style="stroke-width:1.75437"/>
<path class="st3" d="m428.1828 539.8187c-5.61398 0-10.17533-4.56136-10.17533-10.17533v-27.01725c0-5.61398 4.56135-10.17533 10.17533-10.17533 5.61397 0 10.17533 4.56135 10.17533 10.17533v27.01725c0 5.61397-4.56136 10.17533-10.17533 10.17533z" style="stroke-width:1.75437"/>
<path class="st3" d="m371.6044 539.8187c-5.61397 0-10.17533-4.56136-10.17533-10.17533v-37.01714c0-5.61398 4.56136-10.17533 10.17533-10.17533 5.61398 0 10.17533 4.56135 10.17533 10.17533v37.01714c-.17544 5.61397-4.73679 10.17533-10.17533 10.17533z" style="stroke-width:1.75437"/>
<path class="st3" d="m548.7078 343.8559c-13.15775 0-24.03483-10.70163-24.03483-24.03482 0-13.15776 10.70164-24.03483 24.03483-24.03483 13.15775 0 24.03483 10.70164 24.03483 24.03483s-10.70164 24.03482-24.03483 24.03482zm0-34.38559c-5.78941 0-10.5262 4.73679-10.5262 10.5262s4.73679 10.5262 10.5262 10.5262 10.5262-4.73679 10.5262-10.5262c0-5.96485-4.73679-10.5262-10.5262-10.5262z" style="stroke-width:1.75437"/>
<path class="st3" d="m566.2515 308.0668-19.1226-6.84203c22.4559-62.45547 19.29804-121.7531-9.12271-171.0508-30.70142-53.68363-85.78854-85.61311-123.8583-92.80601l3.68417-19.99978c43.85918 8.245525 103.5077 43.15743 137.7178 102.6305 21.92959 38.24521 41.5785 101.7533 10.70164 188.0682z" style="stroke-width:1.75437"/>
<path class="st3" d="m212.2202 320.3474-6.49116-19.29804c2.63155-.87718 268.4182-92.27971 269.8216-241.2255l20.35065.175436c-1.57893 163.507-272.1023 256.4885-283.6811 260.3481z" style="stroke-width:1.75437"/>
<path class="st3" d="m374.6746 384.0309-6.66659-17.54367c185.7875-64.91158 193.6821-157.7176 193.8576-158.5948l20.00116 1.22806c-.35088 4.38592-8.94864 105.6129-207.1922 174.9104z" style="stroke-width:1.75437"/>
<path class="st3" d="m251.6935 333.6806s70.87642 28.94705 116.1391 32.80666l-2.10524 17.92477s-71.75361-3.01265-114.0338-50.73143z" style="stroke-width:1.75437"/>
<path class="st3" d="m362.9203 375.0836c-5.61398 21.22784-24.91202 37.01714-47.89422 37.01714-27.19269 0-49.47315-22.10502-49.47315-49.47315 0-6.14028 1.22805-12.10513 3.33329-17.54367l18.59629 8.24553c-1.05262 2.98242-1.57893 6.14028-1.57893 9.29814 0 16.14018 13.15776 29.29793 29.29793 29.29793 12.80688 0 23.85939-8.42096 27.719-19.99978z" style="stroke-width:1.75437"/>
<path class="st3" d="m488.1821 315.6106c7.71921-6.31573 14.03494-23.50852 14.03494-13.50863v59.2976c0 9.9999-7.01747 22.4559-15.61387 27.54357l-45.78898 27.36812c-8.5964 5.08767-21.57871 3.68417-28.77162-3.3333l-40.87675-42.98199c-7.1929-6.84203 7.71922 1.05262 17.01736-2.45611l49.47315-25.43832c9.29815-3.50874 21.75415-10.17533 29.6488-16.49105z" style="stroke-width:1.75437"/>
<path class="st3" d="m374.3692 456.1354-3.20335-4.03504-3.20472 4.03504c.87718-.87718 1.80122-1.40349 3.20472-1.40349 1.40349 0 2.32617.52631 3.20335 1.40349z" style="stroke-width:1.75437"/>
<path class="st3 " d="m371.1652 431.6195c-2.45431-.0521-4.952.86895-6.66454 2.76176l-14.91212 17.01599c-2.98243 3.50873-2.80699 8.94864.87718 11.93106 3.50873 2.98243 8.94522 2.80699 11.92764-.87718l5.08835-5.79078 3.68349-4.03299 3.68349 4.03299 5.08834 5.79078c2.98243 3.68417 8.42233 3.85961 11.93107.87718 3.68417-2.98242 3.85961-8.42233.87718-11.93106l-14.91212-17.01599c-1.71252-1.89281-4.21367-2.81387-6.66796-2.76176z" style="stroke-width:1.75437"/>
<path class="st3" d="m345.0258 362.9785s22.4559 4.38592 41.5785-3.33329c18.94716-7.71922 8.07009 18.59629 8.07009 18.59629s-14.21037 9.82445-38.42064 4.91222c-24.21026-4.91222-11.22795-20.17522-11.22795-20.17522z" style="stroke-width:1.75437"/>
<path class="st3" d="m489.2348 482.4509h-20.35066v-9.82446c0-3.3333 1.57893-6.31572 4.21048-8.24552l65.43789-46.49073v-80.87632h20.35066v86.13942c0 3.3333-1.57893 6.31572-4.21048 8.24553l-65.43789 46.49072z" style="stroke-width:1.75437"/>
<path class="st3" d="m450.2878 539.8187h-100.1744v-20.35066h100.1744c10.17533 0 18.59629-8.24552 18.59629-18.24542v-28.42074h20.35066v28.42074c0 21.22784-17.36823 38.59608-38.94695 38.59608z" style="stroke-width:1.75437"/>
</g>
<g>
<path class="st3" d="m0 587.4119c0-4.3 2.2-6.5 6.6-6.5h79.1c6.4 0 12.1.6 17.3 1.6 5.1 1.1 9.5 2.6 13 4.6s6.3 4.4 8.2 7.2 2.9 6 2.9 9.4v17.7c0 3.5-1 6.6-2.9 9.4s-4.7 5.2-8.2 7.2c-3.6 2-7.9 3.5-13 4.6s-10.9 1.6-17.3 1.6h-16.4c-3.1 0-5.8 0-8.1-.1-2.3 0-4.5-.1-6.3-.2-1.9-.1-3.7-.2-5.5-.3v.3c1.5.6 3.1 1.2 4.9 1.7 1.7.6 3.9 1.4 6.4 2.3 2.5 1 5.6 2.1 9.2 3.5s8.1 3.2 13.4 5.4l34 13.6c3 1.2 4.5 3.3 4.5 6.3 0 2.5-.8 4.3-2.5 5.2-1.66048.95047-4 1.4-7.1 1.4-3.94273-.0958-7.11832-.39296-11.1-2.1l-82.4-35.6v31c0 2.7-.8 4.5-2.4 5.4-1.6.8-3.9 1.3-7 1.3-3 0-5.3-.4-6.9-1.3-1.6-.8-2.4-2.6-2.4-5.4zm18.7 8.7v33.2h65.3c4.8 0 8.7-.2 11.9-.7 3.1-.5 5.6-1.1 7.5-1.9s3.2-1.7 3.9-2.8c.8-1.1 1.1-2.3 1.1-3.6v-15.2c0-1.2-.4-2.4-1.1-3.5-.8-1.1-2.1-2.1-3.9-2.9s-4.4-1.4-7.5-1.9-7.1-.7-11.9-.7z"/>
<path class="st3" d="m135.7 627.9119c0-16.3 13.3-24.5 39.8-24.5h30.8c26.6 0 39.8 8.2 39.8 24.5v30.5c0 16.3-13.3 24.5-39.8 24.5h-30.7c-26.6 0-39.8-8.2-39.8-24.5zm92.5 0c0-2.9-1.8-5.4-5.4-7.3-3.6-2-9.3-2.9-17.2-2.9h-29.6c-7.9 0-13.6 1-17.2 2.9-3.6 2-5.4 4.4-5.4 7.3v30.5c0 2.8 1.8 5.2 5.4 7.2s9.3 3 17.2 3h29.6c7.9 0 13.6-1 17.2-3s5.4-4.5 5.4-7.2z"/>
<path class="st3" d="m256.8 627.9119c0-16.3 13.3-24.5 39.8-24.5h30.7c26.6 0 39.8 8.2 39.8 24.5v30.5c0 16.3-13.3 24.5-39.8 24.5h-30.7c-26.6 0-39.8-8.2-39.8-24.5zm92.5 0c0-2.9-1.8-5.4-5.4-7.3-3.6-2-9.3-2.9-17.2-2.9h-29.6c-7.9 0-13.6 1-17.2 2.9s-5.4 4.4-5.4 7.3v30.5c0 2.8 1.8 5.2 5.4 7.2s9.3 3 17.2 3h29.6c7.9 0 13.6-1 17.2-3s5.4-4.5 5.4-7.2z"/>
<path class="st3" d="m385 603.5119v-16.5c0-2.7.7-4.5 2.2-5.4 1.5-.8 3.7-1.3 6.7-1.3s5.2.4 6.8 1.3c1.5.8 2.3 2.6 2.3 5.4v16.5h29.7c2.1 0 3.5.6 4.1 1.8s.9 3 .9 5.4c0 2.3-.3 4.1-.9 5.3s-2 1.7-4.1 1.7h-29.7v59.3c0 2.7-.8 4.5-2.3 5.4-1.5.8-3.7 1.3-6.8 1.3-3 0-5.2-.4-6.7-1.3-1.4-.8-2.2-2.6-2.2-5.4v-59.3h-8c-2.1 0-3.5-.6-4.1-1.7-.6-1.2-.9-2.9-.9-5.3s.3-4.1.9-5.4c.6-1.2 2-1.8 4.1-1.8z"/>
<path class="st3" d="m597.4 586.1119c1.5-1.8 3.2-3.1 5-3.8 1.8-.8 3.9-1.1 6.1-1.1 7 0 10.4 3.2 10.4 9.6v86.2c0 2.7-.8 4.5-2.4 5.4-1.6.8-3.9 1.3-7 1.3s-5.4-.4-7-1.3c-1.6-.8-2.4-2.6-2.4-5.4v-66.8l-56.2 68c-1.6 1.9-3.3 3.3-4.9 4.1-1.7.8-3.7 1.3-6.2 1.3-2.7 0-5-.4-6.8-1.3s-3.5-2.2-5-4.1l-56.3-68v66.8c0 2.7-.8 4.5-2.4 5.4-1.6.8-3.9 1.3-7 1.3-3 0-5.3-.4-6.9-1.3-1.6-.8-2.4-2.6-2.4-5.4v-86.2c0-6.4 3.4-9.6 10.3-9.6 4.6 0 8.3 1.6 11.1 4.9l64.8 78.2z"/>
<path class="st3" d="m648.8 651.3119v7.2c0 2.8 1.8 5.2 5.4 7.2s9.3 3 17.2 3h16.2c2.1 0 3.5.6 4.2 1.7.6 1.2.9 2.9.9 5.3 0 2.3-.3 4.1-.9 5.4-.6 1.2-2 1.8-4.2 1.8h-16.7c-26.6 0-39.8-8.2-39.8-24.5v-30.5c0-16.3 13.3-24.5 39.8-24.5h32.5c14.1 0 24.3 2 30.5 6 6.2 4.1 9.3 10.2 9.3 18.4v16.2c0 2.7-.5 4.6-1.6 5.6-1 1-3.3 1.6-6.9 1.6zm0-13.9h76.5v-9.4c0-3.3-1.7-5.8-5.3-7.6-3.5-1.8-9.3-2.7-17.3-2.7h-31.4c-7.9 0-13.6 1-17.2 2.9-3.6 2-5.4 4.4-5.4 7.3z"/>
</g>
<g>
<path class="st2" d="m469.5515 708.1763h-195.9041c-8.84624 0-16.08408 7.23783-16.08408 16.08408v47.12635c0 8.84625 7.23784 16.08408 16.08408 16.08408h195.9041c8.84625 0 16.08408-7.23783 16.08408-16.08408v-47.12635c-.16084-8.84625-7.39867-16.08408-16.08408-16.08408z" style="stroke-width:1.60841"/>
<path class="st2" d="m277.3451 723.7766h37.63739c3.05597 0 5.62943.16084 8.04204.8042 2.41261.48253 4.50483 1.28798 6.11324 2.09219 1.6084.96504 2.89577 2.0903 3.86082 3.37703.96504 1.28672 1.2848 2.73555 1.2848 4.50479v9.49024c0 1.60841-.4806 3.05409-1.2848 4.50166-.96505 1.28673-2.25242 2.41198-3.86082 3.37703-1.76925.96504-3.70063 1.60966-6.11324 2.09218-2.41261.48253-5.14691.80421-8.04204.80421h-31.84455v14.15524c0 1.28673-.32361 2.09031-1.12781 2.57283-.80421.32168-1.92945.64399-3.37702.64399-1.44756 0-2.41261-.16147-3.21681-.64399-.80421-.32168-1.1246-1.2861-1.1246-2.57283v-42.14217c0-2.09093.96247-3.0566 3.0534-3.0566zm68.35734 0h37.1568c3.05597 0 5.62943.16084 8.04204.8042 2.41261.48253 4.50161 1.28798 6.11002 2.09219 1.60841.96504 2.89578 2.0903 3.86082 3.37703.96505 1.28672 1.28801 2.73555 1.28801 4.50479l.16084 8.20226c0 1.60841-.4838 3.05723-1.28801 4.50479-.96504 1.28673-2.25241 2.41199-3.86082 3.37703-1.76925.96505-3.69741 1.60904-6.11002 2.2524-2.41261.48253-5.14691.80421-8.04204.80421h-11.41906c-1.12588 0-2.09221-.003-2.89642-.16335-.8042 0-1.7686.00062-2.57281-.1602v.1602c.64337.32168 1.44821.48252 2.25242.8042.8042.32168 1.76667.64525 3.0534 1.12777s2.57538.96504 4.34463 1.60841c1.76925.64336 3.86082 1.44694 6.27344 2.57282l15.92066 6.43363c1.44757.64337 2.09222 1.60967 2.09222 2.89639 0 1.12589-.17982 1.87303-1.1246 2.41261-.8042.48253-1.93266.64086-3.38023.64086-1.94119.0286-3.67103-.34129-5.30646-.9644l-38.76199-16.72807v14.63902c0 1.28673-.32361 2.0903-1.12781 2.57282-.80421.32169-1.92945.64399-3.37702.64399-1.44756 0-2.41261-.16146-3.21681-.64399-.80421-.32168-1.1246-1.28609-1.1246-2.57282v-42.14217c0-2.09093.96247-3.05661 3.0534-3.05661zm84.44142 0h19.3009c13.0281 0 19.6245 4.18376 19.6245 12.38662v23.32192c0 8.20288-6.5964 12.38349-19.6245 12.38349h-19.3009c-13.02811 0-19.62129-4.18061-19.62129-12.38349v-23.32192c0-8.20286 6.59318-12.38662 19.62129-12.38662zm-147.3295 7.07762v16.72807h31.04356c2.25177 0 4.18186-.15955 5.62943-.32043 1.44757-.16084 2.57216-.48503 3.53721-.96755.8042-.32168 1.4495-.80232 1.93202-1.28484.32168-.48253.48059-1.12526.48059-1.76863v-8.3656c0-.64336-.15923-1.12588-.48059-1.60841-.32168-.32168-.96698-.80295-1.93202-1.12463-.8042-.32168-2.08964-.64273-3.53721-.96442-1.44757-.16084-3.37766-.32356-5.62943-.32356zm68.51754 0v15.60344h30.72316c2.25177 0 4.18186-.16272 5.62943-.32356s2.57217-.4819 3.53721-.96442c.80421-.32168 1.44628-.80546 1.92881-1.28798.32168-.48252.4838-1.12526.4838-1.76862v-7.07763c0-.64336-.16212-1.12588-.4838-1.6084-.48253-.48253-.96376-.96317-1.92881-1.28485-.8042-.32168-2.08964-.64273-3.53721-.96442-1.44757-.16084-3.37766-.32356-5.62943-.32356zm78.9754.1602c-3.86018 0-6.7566.48315-8.52585 1.44819-1.76924.96505-2.57281 2.25303-2.57281 3.7006v23.32191c0 1.44757.80357 2.57157 2.57281 3.69746 1.76925.96504 4.50483 1.60841 8.52585 1.60841h18.81709c3.86018 0 6.7566-.48253 8.52585-1.60841 1.76925-1.12589 2.57281-2.24989 2.57281-3.69746v-23.32191c0-1.60841-.80356-2.73555-2.57281-3.7006-1.76925-.96504-4.50483-1.44819-8.52585-1.44819z" style="fill:#ffffff;stroke-width:1.60841"/>
</g>
</svg>
